<?xml version="1.0" encoding="utf-8"?>
<!-- Generator: Adobe Illustrator 27.8.0, SVG Export Plug-In . SVG Version: 6.00 Build 0)  -->
<svg version="1.1" id="Logo" xmlns="http://www.w3.org/2000/svg" xmlns:xlink="http://www.w3.org/1999/xlink" x="0px" y="0px"
	 viewBox="0 0 280 193" style="enable-background:new 0 0 280 193;" xml:space="preserve">
<style type="text/css">
	.st0{fill:#03234B;}
</style>
<g>
	<path class="st0" d="M232.2475586,46.6306114L96.3028107,46.6407623c0.0026016,0,0.0102386,0.011013,0.0102386,0.011013
		c-10.3150406,0-19.1765671,6.1663208-23.0314178,14.959259L46.4472504,126.252655
		c-0.0728569,0.1693954-0.1144142,0.3506699-0.1144142,0.5437393c0,0.7741852,0.6378479,1.4010239,1.4238396,1.4010239
		l61.3853302-0.0033722c4.3621597,0,6.2628708-4.2012787,2.8595657-7.5521011L89.4563904,99.549057
		c-11.8481598-11.6151962-6.7668839-38.5479431,17.839119-38.5479431h120.1680984
		c0.6217194,0,1.1569519-0.3947296,1.3467407-0.9452362l4.7551422-11.4898605
		c0.067749-0.1617622,0.1016693-0.3446846,0.1016693-0.533596C233.66716,47.2582245,233.0369263,46.6306114,232.2475586,46.6306114z
		"/>
	<path class="st0" d="M218.7036591,79.5322876l-23.0761871,0.0245438c-1.5568085,0-2.8934784,0.9393387-3.4524841,2.2852097
		l-25.8561096,62.4775848c-0.1016541,0.1930695-0.160965,0.418396-0.160965,0.6471252
		c0,0.7724609,0.6369629,1.3992157,1.417923,1.3992157l8.6159058,0.0033722l-0.0033875-0.0084076
		c10.4606781,0,19.488205-6.3357239,23.2540741-15.3259735c0,0,0.0152588,0.0101471,0.0287933,0.0202942l20.5504456-49.6036072
		c0.0626221-0.1609802,0.1016541-0.335495,0.1016541-0.5175552
		C220.1233215,80.156517,219.4863434,79.5322876,218.7036591,79.5322876z"/>
	<path class="st0" d="M173.3423309,80.9340897c0-0.7775726-0.6386414-1.4018021-1.4229736-1.4018021h-65.4285736
		c-3.545639,0-6.6524811,4.3629303-2.8959045,7.8230515l21.6176376,20.1150436c0,0,8.7547531,8.0661774,6.8769455,19.6072922
		c-1.6559296,10.1625595-8.5904846,16.3847427-13.6065369,18.6225967l-0.0135345,0.0033875
		c-0.1203003,0.0609741-0.1999207,0.1829224-0.1999207,0.3133698c0,0.194809,0.1558609,0.3523102,0.3557892,0.3523102
		l25.2153168,0.0033875c1.5602722,0,2.8984985-0.9384766,3.4542236-2.2852173l25.9526367-62.6545105
		C173.3085022,81.2737503,173.3423309,81.1085205,173.3423309,80.9340897z"/>
</g>
</svg>
